<?xml version="1.0" encoding="utf-8"?>
<!-- Generator: Adobe Illustrator 22.0.1, SVG Export Plug-In . SVG Version: 6.00 Build 0)  -->
<svg version="1.1" id="Capa_1" xmlns="http://www.w3.org/2000/svg" xmlns:xlink="http://www.w3.org/1999/xlink" x="0px" y="0px"
	 viewBox="0 0 480 469" style="enable-background:new 0 0 480 469;" xml:space="preserve">
<style type="text/css">
	.st0{fill:#FE7A59;}
	.st1{fill:#33475B;}
	.st2{fill:#FE7C5C;}
	.st3{fill:#FE7B5B;}
</style>
<g>
	<path class="st0" d="M240,276.2c-49.1,0-98.2,0-147.3,0c-18.5,0-37,0-55.6,0c-4.7,0-6.7-2-6.8-6.6c0-24.7,0-49.3,0-74
		c0-2.6,0.6-4.8,3.1-6c0.8-0.4,1.7-0.5,2.6-0.7c0.5-0.1,1,0,1.6,0c135,0,270.1,0,405.1,0c1,0,2.1,0,3.1,0.3c2.5,0.8,3.7,2.7,4,5.2
		c0.1,0.4,0,0.9,0,1.3c0,24.7,0,49.3,0,74c0,1.4-0.4,2.8-1,4c-1,1.9-2.8,2.5-4.9,2.5c-8.5,0-17.1,0-25.6,0
		C358.7,276.2,299.3,276.2,240,276.2C240,276.2,240,276.2,240,276.2z M216.7,217.1c-6.2-4.6-12.8-5.7-19.8-4.2
		c-10.2,2.2-16.3,10.6-15.3,21.6c0.8,8.4,6.3,14.8,14.5,16.9c6.3,1.6,12.4,0.9,18.5-1.3c1.5-0.5,2.1-1.2,2-2.9
		c-0.1-5.2,0-10.5-0.1-15.7c0-0.6-0.1-1.3-0.1-1.9c-4.9,0-9.6,0-14.4,0c0,1.9,0,3.7,0,5.7c2.7,0,5.2,0,7.9,0c0,2.9,0,5.6,0,8.3
		c0,0.9-0.3,1.4-1.2,1.6c-2.3,0.3-4.6,0.8-6.9,0.8c-6,0-10.8-3.8-12.2-9.7c-0.4-1.9-0.6-3.9-0.4-5.8c0.6-8.2,8.1-13.7,16-11.6
		c2.4,0.6,4.6,2,7,3C213.5,220.5,215,218.9,216.7,217.1z M290.4,228.5c-0.8-0.7-1.2-1-1.6-1.3c-4.9-3.8-11.8-3.1-16.1,1.3
		c-4,4.1-4.4,11.4-2.4,16c2.5,5.6,8,8.4,14,7.2c2.3-0.5,4.3-1.7,6-3.7c0.2,1.3,0.3,2.2,0.4,3.1c2.1,0,4,0,5.9,0
		c0-13.5,0-26.8,0-40.2c-2.1,0-4.1,0-5.9,0c-0.2,0.2-0.3,0.2-0.3,0.3C290.4,216.8,290.4,222.4,290.4,228.5z M222.8,238.2
		c-0.4,7.1,5,13.9,13.9,13.8c9.2-0.1,14-6.7,14-13.8c0-7.8-5.9-13.4-14-13.5C227.8,224.7,222.3,231.6,222.8,238.2z M89.4,232.7
		c-0.3-0.5-0.5-1-0.8-1.3c-0.8-0.5-1.6-1.1-2.5-1.3c-4.7-1.4-7.8-4.2-9.1-9c-0.2-0.9-0.8-1.8-1.3-2.6c-0.7-1-1.7-1-2.4,0
		c-0.6,1-1.2,2.1-1.5,3.2c-1.3,4.2-4,6.9-8.2,8.1c-1.1,0.3-2.1,0.8-3,1.5c-1.2,0.9-1.2,1.9,0.1,2.7c0.9,0.6,2,1,3.1,1.3
		c4.1,1.3,6.7,4,8,8.1c0.3,1,0.7,2,1.2,2.9c0.9,1.4,2.1,1.5,3,0c0.7-1.1,1.1-2.3,1.5-3.5c1.2-3.6,3.7-6.1,7.3-7.3
		c1.1-0.4,2.3-0.8,3.3-1.4C88.6,233.9,88.9,233.2,89.4,232.7z M421.2,232.6c-0.4-0.6-0.7-1.2-1.1-1.5c-0.9-0.5-1.8-1-2.8-1.3
		c-4.2-1.3-6.9-3.9-8.2-8.1c-0.3-1.1-0.9-2.3-1.5-3.2c-0.8-1.1-1.8-1.1-2.5,0c-0.6,0.9-1.1,2-1.4,3c-1.3,4.3-4,7.1-8.4,8.3
		c-1,0.3-2,0.7-2.8,1.3c-1.2,0.8-1.2,1.9,0,2.7c0.8,0.6,1.8,1,2.8,1.3c4.4,1.3,7.1,4.1,8.5,8.5c0.3,1,0.7,2,1.3,2.8
		c0.8,1.1,1.7,1.2,2.5,0c0.7-1,1.2-2.1,1.5-3.2c1.3-4.1,4-6.7,8.1-8c1-0.3,2-0.7,2.9-1.2C420.5,233.7,420.7,233.1,421.2,232.6z
		 M256.8,210.9c0,13.4,0,26.8,0,40.2c2.2,0,4.2,0,6.3,0c0-13.5,0-26.8,0-40.2C261,210.9,259,210.9,256.8,210.9z"/>
	<path class="st1" d="M58.7,291.9c10.4,0,20.5,0,30.8,0c0,0.9,0,1.7,0,2.5c0,8.2,0,16.5,0,24.7c0,1.6,0.5,2.5,1.9,3.3
		c45.4,26.2,90.8,52.4,136.1,78.6c3.6,2.1,7.2,4.1,10.7,6.2c1.3,0.8,2.3,0.7,3.7,0c22-12.7,43.9-25.4,65.9-38.1
		c26.9-15.5,53.8-31.1,80.7-46.6c1.5-0.9,2.1-1.7,2-3.5c-0.1-8.6-0.1-17.2,0-25.9c0-0.4,0.1-0.9,0.2-1.4c10.2,0,20.3,0,30.5,0
		c0,0.7,0.1,1.2,0.1,1.8c0,14.5,0,28.9,0,43.4c0,1.5-0.5,2.2-1.8,3c-54.8,31.6-109.6,63.2-164.3,94.8c-2.4,1.4-4.8,2.8-7.2,4.1
		c-5.3,3-10.7,3.1-16,0c-57.1-32.9-114.1-65.8-171.2-98.7c-1.5-0.9-2-1.8-2-3.5c0-14.1,0-28.2-0.1-42.3
		C58.7,293.7,58.7,292.9,58.7,291.9z"/>
	<path class="st1" d="M89.5,173.4c-10.3,0-20.4,0-30.6,0c-0.1-0.6-0.2-1.1-0.2-1.7c0-10.8-0.1-21.6,0-32.4c0.1-6.2,2.8-11,8.3-14.2
		c47.6-27.5,95.1-54.9,142.7-82.4c7.2-4.2,14.4-8.3,21.6-12.5c5.8-3.4,11.4-3.4,17.2,0c45.6,26.4,91.3,52.7,136.9,79
		c8.8,5.1,17.6,10.3,26.5,15.2c6.4,3.6,9.4,8.8,9.3,16.1c-0.1,10,0,20.1,0,30.1c0,0.8,0,1.6,0,2.6c-10.3,0-20.4,0-30.8,0
		c0-0.8,0-1.6,0-2.4c0-7,0-14.1,0-21.1c0-1.6-0.4-2.5-1.9-3.4c-22.9-13.2-45.8-26.4-68.7-39.6c-26.1-15-52.1-30.1-78.2-45.1
		c-0.6-0.3-1.2-0.6-1.8-1c-5.3,3.1-10.6,6.1-15.9,9.2c-43.9,25.3-87.8,50.7-131.6,76c-0.5,0.3-0.9,0.6-1.4,0.8
		c-1.2,0.5-1.5,1.4-1.5,2.7c0.1,7.2,0,14.4,0,21.6C89.5,171.7,89.5,172.5,89.5,173.4z"/>
	<path class="st2" d="M285.2,152.6c-1,1.2-2.1,2.3-2.9,3.6c-0.5,0.8-0.5,1.8-0.8,2.7c-0.5,1.8-2.2,2.9-3.9,2.8
		c-1.8-0.2-3.2-1.5-3.4-3.3c-0.2-2,0.9-4.1,2.7-4.1c3.1,0,4.1-2.6,6.2-4.1c-2.6-4.3-2.8-8.6-0.2-12.9c-3.2-2.5-6.2-4.9-9.3-7.3
		c-0.8-0.6-1.5-1.2-2.3-1.8c-1.2-1-2.3-1.8-4.2-1.2c-2.1,0.6-4.5-1.6-4.9-3.9c-0.4-2.1,1.3-4.4,3.5-5.1c2.2-0.6,5,0.6,5.3,2.9
		c0.3,3,2.4,4.2,4.3,5.7c3.3,2.6,6.6,5.2,9.9,7.7c1.9-0.8,3.6-1.6,5.6-2.5c0-1.1,0.1-2.4-0.1-3.6c-0.1-0.7-0.7-1.4-1.2-2
		c-1.3-1.5-1.4-3.9-0.3-5.4c1-1.4,3.1-2,4.8-1.3c2.4,0.9,3.6,4.3,1.8,6.1c-2,2-1.4,4.2-1.4,6.3c8,3.1,11.3,9.1,8.8,15.6
		c-1.4,3.5-3.9,5.8-7.5,6.9C292.2,155.7,288.9,154.8,285.2,152.6z M292.6,149.3c3.3,0,5.7-2.4,5.7-5.7c0-3.2-2.4-5.7-5.6-5.7
		c-3.3,0-5.9,2.5-5.8,5.8C286.8,146.9,289.3,149.3,292.6,149.3z"/>
	<path class="st1" d="M161.9,125.4c1.8,0,3.5,0,5.4,0c0,4,0,8,0,12.1c3.8,0,7.4,0,11.3,0c0-3.9,0-7.9,0-12.1c2,0,3.7,0,5.6,0
		c0,9.8,0,19.6,0,29.5c-1.7,0-3.4,0-5.4,0c0-3.9,0-7.8,0-11.9c-3.9,0-7.5,0-11.4,0c0,4,0,7.9,0,11.9c-2,0-3.7,0-5.5,0
		C161.9,145.2,161.9,135.4,161.9,125.4z"/>
	<path class="st1" d="M210,125.4c1.9,0,3.4,0,5.2,0c0,3.1,0,6.1,0,9.4c2.4-1.5,4.6-2.4,7.2-2c5.7,0.7,9.9,5.5,9.7,11.3
		c-0.1,5.7-4.6,10.4-10.2,11c-6.7,0.7-11.2-4.3-11.8-10c-0.1-0.7,0-1.3,0-2C210,137.3,210,131.5,210,125.4z M227,144
		c0-3.3-2.6-5.8-5.8-5.7c-3.1,0.1-5.7,2.7-5.7,5.7c0,3.1,2.7,5.9,5.8,5.9C224.5,149.9,227,147.3,227,144z"/>
	<path class="st1" d="M260.7,153.4c0,2.7,0,5.7,0,8.7c-1.8,0-3.4,0-5.1,0c0-0.6-0.1-1.1-0.1-1.6c0-5.5,0-11.1,0-16.6
		c0-5.6,3.1-9.9,8-11.1c4.5-1.1,8.5,0.2,11.5,3.8c3,3.5,3.4,7.6,1.6,11.8c-1.8,4.1-5.2,6.4-9.7,6.5C264.9,154.9,263,154,260.7,153.4
		z M266.8,137.9c-3.2,0-5.9,2.6-5.8,5.8c0,3.1,2.6,5.7,5.7,5.8c3.2,0.1,5.9-2.6,6-5.8C272.6,140.5,270,137.9,266.8,137.9z"/>
	<path class="st1" d="M237.5,146.6c1.5,1.7,2.9,3.1,5.1,3.1c1.9,0,3.4-0.9,3.8-2.5c0.4-1.5-0.3-2.9-2.1-3.7
		c-1.6-0.7-3.2-1.2-4.8-1.9c-4.5-1.9-6.3-5.7-4.9-10.4c0.6-1.9,1.8-3.4,3.5-4.5c3.6-2.2,10.5-2.1,13.8,2.5c-1,1.2-2.1,2.5-3.2,3.9
		c-0.8-0.6-1.5-1.2-2.3-1.5c-1.2-0.4-2.6-0.8-3.8-0.8c-1.4,0-2.2,1.2-2.4,2.6c-0.2,1.3,0.3,2.3,1.5,2.7c1.6,0.7,3.2,1.2,4.8,1.8
		c4.6,1.8,6.7,5.3,5.9,10c-0.7,4.2-4.1,6.9-8.8,7.2c-4,0.2-7.1-1.2-9.8-4.5C234.9,149.4,236.1,148.1,237.5,146.6z"/>
	<path class="st1" d="M187.5,132.7c1.8,0,3.4,0,5.2,0c0,2.5,0,4.9,0,7.2c0,1.9,0,3.7,0.1,5.6c0.1,2.4,1.8,4.1,4.1,4.2
		c2.3,0.1,4.1-1.2,4.6-3.7c0.2-0.8,0.2-1.6,0.2-2.5c0-3.6,0-7.2,0-10.9c1.7,0,3.3,0,5.3,0c0,0.8,0,1.7,0,2.6c-0.1,3.7,0,7.3-0.2,11
		c-0.3,5.1-4.3,8.7-9.3,8.8c-5.2,0.1-9.5-3.4-9.9-8.4C187.2,142.1,187.5,137.5,187.5,132.7z"/>
	<path class="st1" d="M312.4,127.4c0,2.2,0,3.9,0,6c1.6,0,3.1,0,4.8,0c0,1.6,0,3,0,4.6c-1.5,0-3,0-4.7,0c0,3.4-0.1,6.6,0,9.7
		c0.1,1.4,1.1,2.3,2.5,2.4c1,0.1,1.9,0.1,3.1,0.2c-0.4,1.6-0.8,3.1-1.2,4.7c-1.5,0-3,0.2-4.5,0c-3.2-0.5-5.3-3-5.4-6.3
		c-0.1-5.9-0.1-11.8,0-17.7c0-0.5,0.5-1.2,0.9-1.5C309.4,128.7,310.8,128.2,312.4,127.4z"/>
	<path class="st1" d="M290.1,347.7c-0.8,0-1.5,0-2.3,0c0-3.1,0-6.2,0-9.3c-0.2,0-0.3-0.1-0.5-0.1c-1,2.7-2.1,5.4-3.1,8
		c-0.5,1.4-0.6,1.4-2.4,1.3c-1.1-2.8-2.2-5.7-3.3-8.6c-0.2,0-0.3,0.1-0.5,0.1c0,2.8,0,5.6,0,8.5c-0.9,0-1.6,0-2.4,0
		c0-4.4,0-8.8,0-13.3c1.2,0,2.4,0,3.8,0c1.1,2.8,2.2,5.8,3.5,9.2c1.3-3.4,2.3-6.3,3.4-9.3c1.3,0,2.5,0,3.8,0
		C290.1,338.6,290.1,343,290.1,347.7z"/>
	<path class="st1" d="M223.2,305.7c2.3-0.7,3.6,0,4.7,2c1.2,2.3,2.8,4.5,4.1,6.7c0.2-0.1,0.3-0.1,0.5-0.2c0-2.8,0-5.6,0-8.6
		c0.9,0,1.7-0.1,2.6-0.1c0,4.6,0,9.1,0,13.5c-2.1,0.7-3.4,0.1-4.4-1.9c-1.4-2.6-3.1-5.1-5-7.5c0,3.1,0,6.3,0,9.5c-0.9,0-1.6,0-2.5,0
		C223.2,314.6,223.2,310.2,223.2,305.7z"/>
	<path class="st1" d="M212.6,305.3c4.5,0.1,7.3,2.9,7.2,7.3c-0.1,4.1-3.2,7-7.5,7c-4.2-0.1-7.2-3.1-7.2-7.2
		C205.1,308,208.1,305.2,212.6,305.3z M207.9,312.4c0,2.8,2,4.8,4.6,4.8c2.6,0,4.5-2.1,4.6-4.8c0-2.8-2-4.9-4.7-4.9
		C209.7,307.6,207.9,309.6,207.9,312.4z"/>
	<path class="st1" d="M221.2,348.1c-4.4,0-7.3-3-7.3-7.3c0-4.2,3.1-7.1,7.3-7.1c4.3,0,7.3,2.9,7.3,7.1
		C228.6,345.1,225.6,348.1,221.2,348.1z M225.8,341c0-2.8-1.9-4.9-4.5-5c-2.5-0.1-4.7,2.3-4.7,5c0.1,2.7,2.1,4.8,4.6,4.8
		C223.8,345.8,225.8,343.8,225.8,341z"/>
	<path class="st1" d="M144.2,312.4c0-4.3,2.7-7.1,7.1-7.2c4.5,0,7.5,2.7,7.6,7c0,4.2-3.2,7.3-7.4,7.3
		C147.1,319.5,144.2,316.6,144.2,312.4z M155.9,312.4c0-2.9-1.7-4.8-4.4-4.8c-2.8,0-4.7,2-4.6,4.9c0,2.7,2,4.8,4.6,4.8
		C154.1,317.2,155.9,315.2,155.9,312.4z"/>
	<path class="st1" d="M242.3,337.3c-3.3-1.7-5.5-1.6-7.1,0.3c-1.4,1.6-1.5,4.5-0.2,6.3c1.3,1.9,3.5,2.3,6.3,1.3c0-1,0-2,0-3.1
		c-0.8-0.1-1.6-0.1-2.5-0.2c0-0.6-0.1-1.2-0.2-1.9c0.5,0,0.9-0.1,1.3-0.1c1.3,0,2.5,0,3.9,0c0,2.4,0,4.7,0,7.1
		c-2.3,1.2-4.7,1.4-7.2,0.8c-3.5-0.8-5.7-4-5.3-7.6c0.4-3.9,3-6.4,7-6.6c2-0.1,3.8,0.3,5.6,1.8C243.3,336.1,242.8,336.7,242.3,337.3
		z"/>
	<path class="st1" d="M308.5,305.7c2.2-0.6,3.5,0,4.4,2c1,1.9,2.2,3.7,3.4,5.5c0.3,0.5,0.7,0.9,1.4,1.8c0-3.4,0-6.3,0-9.3
		c0.9,0,1.6,0,2.4,0c0,4.5,0,8.9,0,13.4c-1,0-2,0-3,0c-1.9-3.1-3.9-6.3-5.9-9.5c-0.1,0-0.3,0.1-0.4,0.1c0,3.1,0,6.2,0,9.4
		c-0.8,0.1-1.4,0.1-2.3,0.2C308.5,314.7,308.5,310.3,308.5,305.7z"/>
	<path class="st1" d="M293.6,319c-2.2,0.7-3.4,0-4.1-1.8c-0.4-1-1-1.8-1.5-2.8c-0.4-0.9-1-1.2-2.1-0.8c0,1.7,0,3.5,0,5.5
		c-0.8,0.1-1.5,0.1-2.4,0.1c0-4.6,0-9,0-13.7c1.8,0,3.5-0.1,5.1,0c2.4,0.1,4,1.2,4.4,2.9c0.5,2.1-0.2,3.4-2.8,4.9
		C291.4,315.2,292.5,317,293.6,319z M286.1,307.7c0,1.2,0,2.3,0,3.6c1-0.1,1.8-0.1,2.6-0.2c1-0.1,1.7-0.5,1.8-1.6
		c0.1-1.3-0.8-1.7-1.8-1.9C287.9,307.6,287.1,307.7,286.1,307.7z"/>
	<path class="st1" d="M172.5,305.6c0.9,0,1.6,0,2.6,0c0,2.6,0,5,0,7.5c0,2.9,0.9,4.2,2.9,4.1c1.9,0,2.8-1.3,2.8-4c0-2.5,0-4.9,0-7.5
		c0.9,0,1.6-0.1,2.5-0.1c0,3.5,0.2,7-0.1,10.3c-0.2,2.4-3,4-5.7,3.7c-2.8-0.2-4.8-1.9-5-4.5C172.3,312,172.5,308.9,172.5,305.6z"/>
	<path class="st1" d="M333.3,305.6c0,0.8,0,1.4,0,2.2c-2.1,0-4.1,0-6.3,0c0,1.1,0,2,0,3.2c1.9,0,3.8,0,5.9,0c0,0.8,0.1,1.4,0.1,2.3
		c-2.1,0-4,0-6,0c0,1.3,0,2.4,0,3.6c2.3,0,4.4,0,6.7,0c0,0.8,0,1.4,0,2.2c-3.1,0-6.1,0-9.3,0c0-4.5,0-8.9,0-13.5
		C327.3,305.6,330.2,305.6,333.3,305.6z"/>
	<path class="st1" d="M208.4,342c1.1,1.9,2.1,3.7,3.3,5.6c-1.1,0-2,0-2.8,0c-1.2-1.8-2.4-3.7-3.6-5.5c-0.1-0.2-0.7,0-1.2,0
		c0,1.8,0,3.5,0,5.4c-0.9,0-1.7,0-2.5,0c0-4.4,0-8.8,0-13.4c2,0,4-0.1,5.9,0c2.1,0.2,3.4,1.3,3.8,2.9c0.4,1.9-0.2,3.1-2.2,4.4
		C208.7,341.7,208.6,341.8,208.4,342z M204,340.1c1.2-0.1,2.4-0.1,3.3-0.5c0.5-0.2,1.1-1,1.1-1.6c0-0.5-0.6-1.3-1.1-1.4
		c-1-0.3-2.1-0.2-3.3-0.3C204,337.6,204,338.6,204,340.1z"/>
	<path class="st1" d="M258,347.6c-1.2,0-2.1,0-2.8,0c-1.9-1.7-1.8-4.8-4.9-5.8c0,2.2,0,4,0,5.8c-0.9,0-1.6,0-2.5,0
		c0-4.4,0-8.8,0-13.4c2.1,0,4.1-0.2,6.2,0c2,0.2,3.2,1.4,3.5,3c0.3,1.9-0.3,3.4-2.2,4.2c-0.2,0.1-0.3,0.3-0.6,0.5
		C255.8,343.8,256.8,345.6,258,347.6z M250.5,340.1c1.2-0.1,2.3-0.1,3.2-0.4c0.5-0.2,1.2-1,1.1-1.6c0-0.5-0.7-1.4-1.2-1.5
		c-0.9-0.3-2-0.2-3.1-0.3C250.5,337.6,250.5,338.6,250.5,340.1z"/>
	<path class="st1" d="M347.3,319.1c-3,0.3-3,0.3-4.1-1.9c-0.5-0.9-1-1.8-1.5-2.8c-0.4-0.9-1.1-1.1-2.2-0.7c0,1.7,0,3.5,0,5.4
		c-0.8,0.1-1.4,0.1-2.2,0.2c0-4.6,0-9,0-13.7c1.7,0,3.5-0.1,5.3,0c2.5,0.2,3.8,1.2,4.1,3c0.4,2.2-0.2,3.2-2.8,4.7
		C345,315.1,346.1,317,347.3,319.1z M339.6,311.5c1.3-0.1,2.4-0.1,3.3-0.4c0.6-0.2,1.2-1,1.3-1.6c0.1-0.4-0.6-1.3-1.1-1.5
		c-1.1-0.3-2.2-0.3-3.5-0.5C339.6,309,339.6,310.1,339.6,311.5z"/>
	<path class="st1" d="M267.4,334.3c1.8,4.3,3.7,8.7,5.7,13.3c-1,0.1-1.8,0.1-2.9,0.2c-0.4-2.2-1.6-3.2-4.1-3.2c-2.4,0-3.6,0.8-4,3
		c-1,0-1.8,0-2.9,0c1.4-3.4,2.8-6.6,4.2-9.9c0.3-0.6,0.6-1.2,0.8-1.8C264.8,334.4,265.7,333.7,267.4,334.3z M266.4,337.8
		c-0.2,0-0.3,0-0.5,0c-0.6,1.5-1.1,2.9-1.7,4.5c1.4,0,2.5,0,3.9,0C267.5,340.7,266.9,339.2,266.4,337.8z"/>
	<path class="st1" d="M281.1,319.2c-1.2,0-2,0-2.9,0c-0.4-1-0.9-1.9-1.3-3c-1.8,0-3.6,0-5.7,0c-0.4,0.9-0.8,1.9-1.3,2.9
		c-0.9,0-1.7,0-2.8,0c0.4-1.1,0.8-2,1.2-2.9c1.4-3.1,2.7-6.3,4.1-9.4c0.3-0.6,0.9-1.1,1.5-1.3c1-0.3,1.4,0.4,1.8,1.2
		C277.4,310.8,279.2,314.9,281.1,319.2z M273.9,308.9c-0.6,1.7-1.2,3.2-1.8,4.8c1.4,0,2.5,0,3.8,0c-0.5-1.4-1-2.7-1.4-3.9
		C274.4,309.6,274.2,309.4,273.9,308.9z"/>
	<path class="st1" d="M131.6,317.6c0.7-0.7,1.2-1.1,1.6-1.5c1,0.4,1.9,1,2.9,1.2c1.1,0.2,2.1-0.2,2.5-1.4c0.4-1.2-0.6-1.8-1.5-2.2
		c-0.9-0.4-1.8-0.7-2.7-1.1c-1.5-0.7-2.3-1.9-2.2-3.6c0.1-1.6,0.9-2.8,2.5-3.4c2.2-0.8,4.4-0.7,6.4,1c-0.5,0.6-1,1.2-1.3,1.5
		c-1.2-0.3-2.2-0.8-3.2-0.7c-0.6,0-1.6,0.8-1.7,1.4c-0.1,0.5,0.6,1.4,1.2,1.8c0.7,0.5,1.7,0.6,2.5,1c1.8,0.7,2.7,2.1,2.6,3.8
		c-0.1,1.9-1.3,3.4-3.2,3.9C135.8,319.9,133.6,319.5,131.6,317.6z"/>
	<path class="st1" d="M238,317.6c0.7-0.6,1.2-1.1,1.6-1.5c1,0.4,1.8,1,2.7,1.2c1,0.2,2.2,0,2.6-1.2c0.4-1.3-0.3-2-1.4-2.4
		c-0.9-0.4-1.8-0.6-2.7-1.1c-1.4-0.7-2.2-1.8-2.1-3.4c0-1.6,0.8-2.8,2.2-3.4c2.3-1,4.6-0.9,6.8,0.8c-0.6,0.6-1,1.2-1.3,1.5
		c-1.2-0.3-2.2-0.7-3.1-0.7c-0.6,0-1.6,0.7-1.7,1.3c-0.1,0.5,0.6,1.4,1.2,1.8c0.8,0.5,1.8,0.7,2.7,1.1c1.5,0.7,2.5,1.8,2.4,3.7
		c-0.1,1.8-1,3.2-2.7,3.8C242.6,319.9,240.2,319.6,238,317.6z"/>
	<path class="st1" d="M257.2,305.4c2.2,0.1,4.2,0.1,6.2,0.3c2.2,0.3,3.4,1.7,3.4,3.7c0,2.1-1.3,3.6-3.5,3.9
		c-1.1,0.2-2.2,0.2-3.5,0.2c0,1.8,0,3.6,0,5.4c-0.9,0-1.6,0-2.5,0C257.2,314.7,257.2,310.2,257.2,305.4z M259.8,311.5
		c1-0.1,1.9,0,2.7-0.3c0.6-0.3,1.4-0.9,1.5-1.6c0.2-1-0.6-1.6-1.5-1.8c-0.8-0.1-1.7-0.1-2.7-0.2C259.8,308.9,259.8,310,259.8,311.5z
		"/>
	<path class="st1" d="M191.2,347.6c-0.9,0-1.6,0-2.4,0c0-4.5,0-8.8,0-13.4c2,0,4-0.2,6,0c2.3,0.2,3.4,1.6,3.5,3.7
		c0.1,2.2-0.9,3.6-3.3,4.1c-1.1,0.2-2.3,0.3-3.7,0.4C191.2,344.1,191.2,345.8,191.2,347.6z M191.2,340.1c1.2-0.1,2.3,0,3.1-0.4
		c0.6-0.3,1.2-1.2,1.2-1.8c0-0.5-0.8-1.3-1.4-1.4c-0.9-0.2-1.9-0.1-2.9-0.1C191.2,337.6,191.2,338.7,191.2,340.1z"/>
	<path class="st1" d="M192.6,319.1c-0.9,0-1.6,0-2.6,0c0-3.7,0-7.3,0-11.1c-1.4-0.1-2.7-0.1-4-0.2c0-0.8,0-1.4,0-2.2
		c3.6,0,7.1,0,10.6,0c0,0.8,0,1.4,0,2.2c-1.3,0.1-2.6,0.1-4,0.2C192.6,311.8,192.6,315.4,192.6,319.1z"/>
	<path class="st1" d="M305.7,307.8c-1.4,0.1-2.7,0.1-4.1,0.2c0,3.7,0,7.4,0,11.1c-0.9,0-1.6,0.1-2.6,0.1c0-3.8,0-7.5,0-11.4
		c-1.4,0-2.6,0-3.9,0c0-0.8,0-1.5,0-2.3c3.5,0,6.9,0,10.5,0C305.6,306.3,305.7,307,305.7,307.8z"/>
	<path class="st1" d="M162.3,305.6c0.8,0,1.4,0,2.4,0c0,3.8,0,7.5,0,11.3c2,0,3.7,0,5.6,0c0,0.8,0,1.5,0,2.3c-2.7,0-5.2,0-7.9,0
		C162.3,314.7,162.3,310.3,162.3,305.6z"/>
	<path class="st1" d="M199.4,305.6c0.6,0,0.9-0.1,1.3-0.1c0.3,0,0.6,0.1,1,0.1c0,4.5,0,8.9,0,13.5c-0.7,0-1.4,0.1-2.3,0.1
		C199.4,314.7,199.4,310.2,199.4,305.6z"/>
	<path class="st3" d="M275.9,238.6c0-5.4,3.1-8.7,7.6-8.5c3.2,0.2,5.3,2,6.4,4.9c1.1,2.6,0.9,5.3-0.5,7.8c-1.6,2.8-4.6,4.2-7.8,3.6
		c-2.6-0.5-5-3.1-5.5-5.9C275.9,239.7,275.9,239,275.9,238.6z"/>
	<path class="st3" d="M236.6,246.4c-4.1,0.3-7.4-3.6-7.2-8.7c0-0.9,0.2-1.8,0.5-2.6c1.1-3.3,3.6-5,6.9-5c3.3,0,5.7,1.9,6.8,5.2
		c0.7,2.2,0.6,4.4-0.2,6.6C242.2,244.9,239.8,246.5,236.6,246.4z"/>
</g>
</svg>
