<svg xmlns="http://www.w3.org/2000/svg" id="Capa_1" viewBox="0 0 80 41"><style>.st0{fill:none; stroke-width: 2px; stroke: #353333; stroke-linecap: round; stroke-dasharray: 250px; stroke-dashoffset: 350px; animation: dibuja 15s cubic-bezier(.59,.01,.44,1) infinite alternate} @keyframes dibuja{ to{ stroke-dashoffset: 0; } }</style><path class="st0" d="M51.3 9.9c3.9-2.9 10.1-6 14.6-2.8 3 2 3.1 5.5 3.1 8.8v14.4h5v5.1H63.3V16.8c0-2.7 0-5.9-3.6-5.9-2.3 0-4.9 1.1-7.7 3.3v16h5.1v5.1H46.3V16.8c0-1.7-.1-2.9-.2-3.5-.1-.7-.5-1.3-1.1-1.8-.6-.4-1.3-.7-2.2-.7-2.4 0-5.2 1.2-8.3 3.7v15.6h5v5.1H28.8v-19c0-1.9-.3-3.3-.8-4.1-.6-.8-1.5-1.3-2.8-1.3-2.2 0-4.9 1.2-8.3 3.7v15.6H22v5.1H6v-5.1h5.2V11.3H6.3V6.2h10.5v3.6c3.4-2.7 6.8-4.1 10.1-4.1s5.6 1.5 6.9 4.5c3.8-3 7.3-4.5 10.5-4.5 1.9 0 3.4.4 4.6 1.2 1.2.9 2 1.9 2.4 3"/><head/></svg>