<?xml version="1.0" encoding="utf-8"?>
<!-- Generator: Adobe Illustrator 21.0.2, SVG Export Plug-In . SVG Version: 6.00 Build 0)  -->
<svg version="1.1" id="Capa_1" xmlns="http://www.w3.org/2000/svg" xmlns:xlink="http://www.w3.org/1999/xlink" x="0px" y="0px"
	 viewBox="0 0 77 37" style="enable-background:new 0 0 77 37;" xml:space="preserve">
<style type="text/css">
	.st0{fill:#FFFFFF;}
</style>
<path class="st0" d="M49.8,7.9c3.9-2.9,10.1-6,14.6-2.8c3,2,3.1,5.5,3.1,8.8v14.4h5.1v5.1H61.8V14.8c0-2.7,0-5.9-3.6-5.9
	c-2.3,0-4.9,1.1-7.7,3.3c0,0.5,0,1,0,1.6v14.4h5.1v5.1H44.8V14.8c0-1.7-0.1-2.9-0.2-3.5c-0.1-0.7-0.5-1.3-1.1-1.7
	c-0.6-0.4-1.3-0.7-2.2-0.7c-2.4,0-5.2,1.2-8.3,3.7v15.6h5v5.1H27.3v-19c0-1.9-0.3-3.3-0.8-4.1c-0.6-0.8-1.5-1.3-2.8-1.3
	c-2.2,0-4.9,1.2-8.3,3.7v15.6h5.1v5.1h-16v-5.1h5.2V9.3H4.8V4.2h10.5v3.6c3.4-2.7,6.8-4.1,10.1-4.1c3.3,0,5.6,1.5,6.9,4.5
	c3.8-3,7.3-4.5,10.5-4.5c1.9,0,3.4,0.4,4.6,1.2C48.6,5.8,49.4,6.8,49.8,7.9"/>
</svg>
